<svg xmlns="http://www.w3.org/2000/svg" viewBox="0 0 64 64" width="64" height="64">
  <rect width="64" height="64" rx="14" fill="#0a0e14"/>
  <path d="M14 38c0-2 1-4 3-5l5-9c1-2 3-3 5-3h14c2 0 4 1 5 3l5 9c2 1 3 3 3 5v6a3 3 0 0 1-3 3h-2a3 3 0 0 1-3-3v-1H22v1a3 3 0 0 1-3 3h-2a3 3 0 0 1-3-3v-6z" fill="#2dd4bf"/>
  <circle cx="22" cy="41" r="3" fill="#0a0e14"/>
  <circle cx="42" cy="41" r="3" fill="#0a0e14"/>
  <path d="M16 33h32l-4-7c-1-1-2-2-3-2H23c-1 0-2 1-3 2l-4 7z" fill="#0a0e14" opacity="0.3"/>
  <path d="M10 36h44" stroke="#2dd4bf" stroke-width="1.5" stroke-linecap="round" opacity="0.4"/>
</svg>
